<mxfile host="app.diagrams.net" modified="2020-05-18T14:00:59.090Z" agent="5.0 (Windows)" etag="rp0GmpmWa4BFR9s263l-" version="12.9.12" type="github">
  <diagram id="OpOsCSG6BsF0c1n5z4DH" name="Page-1">
    <mxGraphModel dx="1675" dy="899" grid="1" gridSize="10" guides="1" tooltips="1" connect="1" arrows="1" fold="1" page="1" pageScale="1" pageWidth="1654" pageHeight="2336" math="0" shadow="0">
      <root>
        <mxCell id="0" />
        <mxCell id="1" parent="0" />
        <mxCell id="gVkinQhVHXGiU6p2n8td-5" value="Administrateur" style="swimlane;fontStyle=1;childLayout=stackLayout;horizontal=1;startSize=26;fillColor=none;horizontalStack=0;resizeParent=1;resizeParentMax=0;resizeLast=0;collapsible=1;marginBottom=0;" parent="1" vertex="1">
          <mxGeometry x="10" y="220" width="140" height="104" as="geometry" />
        </mxCell>
        <mxCell id="gVkinQhVHXGiU6p2n8td-6" value="+ field: type" style="text;strokeColor=none;fillColor=none;align=left;verticalAlign=top;spacingLeft=4;spacingRight=4;overflow=hidden;rotatable=0;points=[[0,0.5],[1,0.5]];portConstraint=eastwest;" parent="gVkinQhVHXGiU6p2n8td-5" vertex="1">
          <mxGeometry y="26" width="140" height="26" as="geometry" />
        </mxCell>
        <mxCell id="gVkinQhVHXGiU6p2n8td-7" value="+ field: type" style="text;strokeColor=none;fillColor=none;align=left;verticalAlign=top;spacingLeft=4;spacingRight=4;overflow=hidden;rotatable=0;points=[[0,0.5],[1,0.5]];portConstraint=eastwest;" parent="gVkinQhVHXGiU6p2n8td-5" vertex="1">
          <mxGeometry y="52" width="140" height="26" as="geometry" />
        </mxCell>
        <mxCell id="gVkinQhVHXGiU6p2n8td-8" value="+ field: type" style="text;strokeColor=none;fillColor=none;align=left;verticalAlign=top;spacingLeft=4;spacingRight=4;overflow=hidden;rotatable=0;points=[[0,0.5],[1,0.5]];portConstraint=eastwest;" parent="gVkinQhVHXGiU6p2n8td-5" vertex="1">
          <mxGeometry y="78" width="140" height="26" as="geometry" />
        </mxCell>
        <mxCell id="gVkinQhVHXGiU6p2n8td-9" value="Referent" style="swimlane;fontStyle=1;childLayout=stackLayout;horizontal=1;startSize=26;fillColor=none;horizontalStack=0;resizeParent=1;resizeParentMax=0;resizeLast=0;collapsible=1;marginBottom=0;" parent="1" vertex="1">
          <mxGeometry x="170" y="220" width="140" height="104" as="geometry" />
        </mxCell>
        <mxCell id="gVkinQhVHXGiU6p2n8td-10" value="+ field: type" style="text;strokeColor=none;fillColor=none;align=left;verticalAlign=top;spacingLeft=4;spacingRight=4;overflow=hidden;rotatable=0;points=[[0,0.5],[1,0.5]];portConstraint=eastwest;" parent="gVkinQhVHXGiU6p2n8td-9" vertex="1">
          <mxGeometry y="26" width="140" height="26" as="geometry" />
        </mxCell>
        <mxCell id="gVkinQhVHXGiU6p2n8td-11" value="+ field: type" style="text;strokeColor=none;fillColor=none;align=left;verticalAlign=top;spacingLeft=4;spacingRight=4;overflow=hidden;rotatable=0;points=[[0,0.5],[1,0.5]];portConstraint=eastwest;" parent="gVkinQhVHXGiU6p2n8td-9" vertex="1">
          <mxGeometry y="52" width="140" height="26" as="geometry" />
        </mxCell>
        <mxCell id="gVkinQhVHXGiU6p2n8td-12" value="+ field: type" style="text;strokeColor=none;fillColor=none;align=left;verticalAlign=top;spacingLeft=4;spacingRight=4;overflow=hidden;rotatable=0;points=[[0,0.5],[1,0.5]];portConstraint=eastwest;" parent="gVkinQhVHXGiU6p2n8td-9" vertex="1">
          <mxGeometry y="78" width="140" height="26" as="geometry" />
        </mxCell>
        <mxCell id="sxT-1K6BMq8s-l1KHEbg-26" style="edgeStyle=orthogonalEdgeStyle;rounded=0;orthogonalLoop=1;jettySize=auto;html=1;" edge="1" parent="1" source="gVkinQhVHXGiU6p2n8td-13">
          <mxGeometry relative="1" as="geometry">
            <mxPoint x="400" y="370" as="targetPoint" />
          </mxGeometry>
        </mxCell>
        <mxCell id="gVkinQhVHXGiU6p2n8td-13" value="Etudiant" style="swimlane;fontStyle=1;childLayout=stackLayout;horizontal=1;startSize=26;fillColor=none;horizontalStack=0;resizeParent=1;resizeParentMax=0;resizeLast=0;collapsible=1;marginBottom=0;" parent="1" vertex="1">
          <mxGeometry x="330" y="220" width="140" height="104" as="geometry" />
        </mxCell>
        <mxCell id="gVkinQhVHXGiU6p2n8td-14" value="+ field: type" style="text;strokeColor=none;fillColor=none;align=left;verticalAlign=top;spacingLeft=4;spacingRight=4;overflow=hidden;rotatable=0;points=[[0,0.5],[1,0.5]];portConstraint=eastwest;" parent="gVkinQhVHXGiU6p2n8td-13" vertex="1">
          <mxGeometry y="26" width="140" height="26" as="geometry" />
        </mxCell>
        <mxCell id="gVkinQhVHXGiU6p2n8td-15" value="+ field: type" style="text;strokeColor=none;fillColor=none;align=left;verticalAlign=top;spacingLeft=4;spacingRight=4;overflow=hidden;rotatable=0;points=[[0,0.5],[1,0.5]];portConstraint=eastwest;" parent="gVkinQhVHXGiU6p2n8td-13" vertex="1">
          <mxGeometry y="52" width="140" height="26" as="geometry" />
        </mxCell>
        <mxCell id="gVkinQhVHXGiU6p2n8td-16" value="+ field: type" style="text;strokeColor=none;fillColor=none;align=left;verticalAlign=top;spacingLeft=4;spacingRight=4;overflow=hidden;rotatable=0;points=[[0,0.5],[1,0.5]];portConstraint=eastwest;" parent="gVkinQhVHXGiU6p2n8td-13" vertex="1">
          <mxGeometry y="78" width="140" height="26" as="geometry" />
        </mxCell>
        <mxCell id="sxT-1K6BMq8s-l1KHEbg-46" style="edgeStyle=orthogonalEdgeStyle;rounded=0;orthogonalLoop=1;jettySize=auto;html=1;entryX=0.093;entryY=0.962;entryDx=0;entryDy=0;entryPerimeter=0;" edge="1" parent="1" source="gVkinQhVHXGiU6p2n8td-18" target="gVkinQhVHXGiU6p2n8td-43">
          <mxGeometry relative="1" as="geometry">
            <Array as="points">
              <mxPoint x="560" y="340" />
              <mxPoint x="830" y="340" />
              <mxPoint x="830" y="344" />
              <mxPoint x="1042" y="344" />
            </Array>
          </mxGeometry>
        </mxCell>
        <mxCell id="gVkinQhVHXGiU6p2n8td-18" value="Enseignant" style="swimlane;fontStyle=1;childLayout=stackLayout;horizontal=1;startSize=26;fillColor=none;horizontalStack=0;resizeParent=1;resizeParentMax=0;resizeLast=0;collapsible=1;marginBottom=0;" parent="1" vertex="1">
          <mxGeometry x="490" y="220" width="140" height="104" as="geometry" />
        </mxCell>
        <mxCell id="gVkinQhVHXGiU6p2n8td-19" value="+ field: type" style="text;strokeColor=none;fillColor=none;align=left;verticalAlign=top;spacingLeft=4;spacingRight=4;overflow=hidden;rotatable=0;points=[[0,0.5],[1,0.5]];portConstraint=eastwest;" parent="gVkinQhVHXGiU6p2n8td-18" vertex="1">
          <mxGeometry y="26" width="140" height="26" as="geometry" />
        </mxCell>
        <mxCell id="gVkinQhVHXGiU6p2n8td-20" value="+ field: type" style="text;strokeColor=none;fillColor=none;align=left;verticalAlign=top;spacingLeft=4;spacingRight=4;overflow=hidden;rotatable=0;points=[[0,0.5],[1,0.5]];portConstraint=eastwest;" parent="gVkinQhVHXGiU6p2n8td-18" vertex="1">
          <mxGeometry y="52" width="140" height="26" as="geometry" />
        </mxCell>
        <mxCell id="gVkinQhVHXGiU6p2n8td-21" value="+ field: type" style="text;strokeColor=none;fillColor=none;align=left;verticalAlign=top;spacingLeft=4;spacingRight=4;overflow=hidden;rotatable=0;points=[[0,0.5],[1,0.5]];portConstraint=eastwest;" parent="gVkinQhVHXGiU6p2n8td-18" vertex="1">
          <mxGeometry y="78" width="140" height="26" as="geometry" />
        </mxCell>
        <mxCell id="gVkinQhVHXGiU6p2n8td-1" value="Abstract Utilisateur" style="swimlane;fontStyle=3;childLayout=stackLayout;horizontal=1;startSize=26;fillColor=none;horizontalStack=0;resizeParent=1;resizeParentMax=0;resizeLast=0;collapsible=1;marginBottom=0;" parent="1" vertex="1">
          <mxGeometry x="250" y="60" width="140" height="104" as="geometry" />
        </mxCell>
        <mxCell id="gVkinQhVHXGiU6p2n8td-2" value="+ field: type" style="text;strokeColor=none;fillColor=none;align=left;verticalAlign=top;spacingLeft=4;spacingRight=4;overflow=hidden;rotatable=0;points=[[0,0.5],[1,0.5]];portConstraint=eastwest;" parent="gVkinQhVHXGiU6p2n8td-1" vertex="1">
          <mxGeometry y="26" width="140" height="26" as="geometry" />
        </mxCell>
        <mxCell id="gVkinQhVHXGiU6p2n8td-3" value="+ field: type" style="text;strokeColor=none;fillColor=none;align=left;verticalAlign=top;spacingLeft=4;spacingRight=4;overflow=hidden;rotatable=0;points=[[0,0.5],[1,0.5]];portConstraint=eastwest;" parent="gVkinQhVHXGiU6p2n8td-1" vertex="1">
          <mxGeometry y="52" width="140" height="26" as="geometry" />
        </mxCell>
        <mxCell id="gVkinQhVHXGiU6p2n8td-4" value="+ field: type" style="text;strokeColor=none;fillColor=none;align=left;verticalAlign=top;spacingLeft=4;spacingRight=4;overflow=hidden;rotatable=0;points=[[0,0.5],[1,0.5]];portConstraint=eastwest;" parent="gVkinQhVHXGiU6p2n8td-1" vertex="1">
          <mxGeometry y="78" width="140" height="26" as="geometry" />
        </mxCell>
        <mxCell id="gVkinQhVHXGiU6p2n8td-22" value="Ecole" style="swimlane;fontStyle=1;childLayout=stackLayout;horizontal=1;startSize=26;fillColor=none;horizontalStack=0;resizeParent=1;resizeParentMax=0;resizeLast=0;collapsible=1;marginBottom=0;" parent="1" vertex="1">
          <mxGeometry x="860" y="60" width="140" height="104" as="geometry" />
        </mxCell>
        <mxCell id="gVkinQhVHXGiU6p2n8td-23" value="+ field: type" style="text;strokeColor=none;fillColor=none;align=left;verticalAlign=top;spacingLeft=4;spacingRight=4;overflow=hidden;rotatable=0;points=[[0,0.5],[1,0.5]];portConstraint=eastwest;" parent="gVkinQhVHXGiU6p2n8td-22" vertex="1">
          <mxGeometry y="26" width="140" height="26" as="geometry" />
        </mxCell>
        <mxCell id="gVkinQhVHXGiU6p2n8td-24" value="+ field: type" style="text;strokeColor=none;fillColor=none;align=left;verticalAlign=top;spacingLeft=4;spacingRight=4;overflow=hidden;rotatable=0;points=[[0,0.5],[1,0.5]];portConstraint=eastwest;" parent="gVkinQhVHXGiU6p2n8td-22" vertex="1">
          <mxGeometry y="52" width="140" height="26" as="geometry" />
        </mxCell>
        <mxCell id="gVkinQhVHXGiU6p2n8td-25" value="+ field: type" style="text;strokeColor=none;fillColor=none;align=left;verticalAlign=top;spacingLeft=4;spacingRight=4;overflow=hidden;rotatable=0;points=[[0,0.5],[1,0.5]];portConstraint=eastwest;" parent="gVkinQhVHXGiU6p2n8td-22" vertex="1">
          <mxGeometry y="78" width="140" height="26" as="geometry" />
        </mxCell>
        <mxCell id="gVkinQhVHXGiU6p2n8td-30" value="" style="shape=flexArrow;endArrow=classic;html=1;exitX=0.5;exitY=0;exitDx=0;exitDy=0;entryX=-0.014;entryY=0;entryDx=0;entryDy=0;entryPerimeter=0;" parent="1" source="gVkinQhVHXGiU6p2n8td-5" target="gVkinQhVHXGiU6p2n8td-3" edge="1">
          <mxGeometry width="50" height="50" relative="1" as="geometry">
            <mxPoint x="130" y="550" as="sourcePoint" />
            <mxPoint x="180" y="500" as="targetPoint" />
            <Array as="points">
              <mxPoint x="80" y="112" />
            </Array>
          </mxGeometry>
        </mxCell>
        <mxCell id="gVkinQhVHXGiU6p2n8td-31" value="" style="shape=flexArrow;endArrow=classic;html=1;entryX=0;entryY=0.5;entryDx=0;entryDy=0;" parent="1" target="gVkinQhVHXGiU6p2n8td-4" edge="1">
          <mxGeometry width="50" height="50" relative="1" as="geometry">
            <mxPoint x="205" y="220" as="sourcePoint" />
            <mxPoint x="280" y="390" as="targetPoint" />
            <Array as="points">
              <mxPoint x="205" y="151" />
            </Array>
          </mxGeometry>
        </mxCell>
        <mxCell id="gVkinQhVHXGiU6p2n8td-32" value="" style="shape=flexArrow;endArrow=classic;html=1;exitX=0.75;exitY=0;exitDx=0;exitDy=0;entryX=1;entryY=0.5;entryDx=0;entryDy=0;" parent="1" source="gVkinQhVHXGiU6p2n8td-13" target="gVkinQhVHXGiU6p2n8td-4" edge="1">
          <mxGeometry width="50" height="50" relative="1" as="geometry">
            <mxPoint x="190" y="530" as="sourcePoint" />
            <mxPoint x="240" y="480" as="targetPoint" />
            <Array as="points">
              <mxPoint x="435" y="151" />
            </Array>
          </mxGeometry>
        </mxCell>
        <mxCell id="gVkinQhVHXGiU6p2n8td-33" value="" style="shape=flexArrow;endArrow=classic;html=1;exitX=0.5;exitY=0;exitDx=0;exitDy=0;entryX=1;entryY=0.5;entryDx=0;entryDy=0;" parent="1" source="gVkinQhVHXGiU6p2n8td-18" target="gVkinQhVHXGiU6p2n8td-1" edge="1">
          <mxGeometry width="50" height="50" relative="1" as="geometry">
            <mxPoint x="180" y="570" as="sourcePoint" />
            <mxPoint x="230" y="520" as="targetPoint" />
            <Array as="points">
              <mxPoint x="560" y="112" />
            </Array>
          </mxGeometry>
        </mxCell>
        <mxCell id="gVkinQhVHXGiU6p2n8td-61" style="edgeStyle=orthogonalEdgeStyle;rounded=0;orthogonalLoop=1;jettySize=auto;html=1;entryX=0.25;entryY=0;entryDx=0;entryDy=0;" parent="1" source="gVkinQhVHXGiU6p2n8td-26" target="gVkinQhVHXGiU6p2n8td-35" edge="1">
          <mxGeometry relative="1" as="geometry">
            <Array as="points">
              <mxPoint x="760" y="200" />
              <mxPoint x="895" y="200" />
            </Array>
          </mxGeometry>
        </mxCell>
        <mxCell id="sxT-1K6BMq8s-l1KHEbg-63" style="edgeStyle=orthogonalEdgeStyle;rounded=0;orthogonalLoop=1;jettySize=auto;html=1;entryX=0.436;entryY=1.231;entryDx=0;entryDy=0;entryPerimeter=0;" edge="1" parent="1" source="gVkinQhVHXGiU6p2n8td-26" target="gVkinQhVHXGiU6p2n8td-43">
          <mxGeometry relative="1" as="geometry">
            <Array as="points">
              <mxPoint x="760" y="420" />
              <mxPoint x="1090" y="420" />
            </Array>
          </mxGeometry>
        </mxCell>
        <mxCell id="gVkinQhVHXGiU6p2n8td-26" value="Salle" style="swimlane;fontStyle=1;childLayout=stackLayout;horizontal=1;startSize=26;fillColor=none;horizontalStack=0;resizeParent=1;resizeParentMax=0;resizeLast=0;collapsible=1;marginBottom=0;" parent="1" vertex="1">
          <mxGeometry x="690" y="220" width="140" height="104" as="geometry" />
        </mxCell>
        <mxCell id="gVkinQhVHXGiU6p2n8td-27" value="+ field: type" style="text;strokeColor=none;fillColor=none;align=left;verticalAlign=top;spacingLeft=4;spacingRight=4;overflow=hidden;rotatable=0;points=[[0,0.5],[1,0.5]];portConstraint=eastwest;" parent="gVkinQhVHXGiU6p2n8td-26" vertex="1">
          <mxGeometry y="26" width="140" height="26" as="geometry" />
        </mxCell>
        <mxCell id="gVkinQhVHXGiU6p2n8td-28" value="+ field: type" style="text;strokeColor=none;fillColor=none;align=left;verticalAlign=top;spacingLeft=4;spacingRight=4;overflow=hidden;rotatable=0;points=[[0,0.5],[1,0.5]];portConstraint=eastwest;" parent="gVkinQhVHXGiU6p2n8td-26" vertex="1">
          <mxGeometry y="52" width="140" height="26" as="geometry" />
        </mxCell>
        <mxCell id="gVkinQhVHXGiU6p2n8td-29" value="+ field: type" style="text;strokeColor=none;fillColor=none;align=left;verticalAlign=top;spacingLeft=4;spacingRight=4;overflow=hidden;rotatable=0;points=[[0,0.5],[1,0.5]];portConstraint=eastwest;" parent="gVkinQhVHXGiU6p2n8td-26" vertex="1">
          <mxGeometry y="78" width="140" height="26" as="geometry" />
        </mxCell>
        <mxCell id="gVkinQhVHXGiU6p2n8td-45" style="edgeStyle=orthogonalEdgeStyle;rounded=0;orthogonalLoop=1;jettySize=auto;html=1;entryX=0.5;entryY=1;entryDx=0;entryDy=0;" parent="1" source="gVkinQhVHXGiU6p2n8td-35" target="gVkinQhVHXGiU6p2n8td-22" edge="1">
          <mxGeometry relative="1" as="geometry" />
        </mxCell>
        <mxCell id="gVkinQhVHXGiU6p2n8td-35" value="Site" style="swimlane;fontStyle=1;childLayout=stackLayout;horizontal=1;startSize=26;fillColor=none;horizontalStack=0;resizeParent=1;resizeParentMax=0;resizeLast=0;collapsible=1;marginBottom=0;" parent="1" vertex="1">
          <mxGeometry x="860" y="220" width="140" height="104" as="geometry" />
        </mxCell>
        <mxCell id="gVkinQhVHXGiU6p2n8td-36" value="+ field: type" style="text;strokeColor=none;fillColor=none;align=left;verticalAlign=top;spacingLeft=4;spacingRight=4;overflow=hidden;rotatable=0;points=[[0,0.5],[1,0.5]];portConstraint=eastwest;" parent="gVkinQhVHXGiU6p2n8td-35" vertex="1">
          <mxGeometry y="26" width="140" height="26" as="geometry" />
        </mxCell>
        <mxCell id="gVkinQhVHXGiU6p2n8td-37" value="+ field: type" style="text;strokeColor=none;fillColor=none;align=left;verticalAlign=top;spacingLeft=4;spacingRight=4;overflow=hidden;rotatable=0;points=[[0,0.5],[1,0.5]];portConstraint=eastwest;" parent="gVkinQhVHXGiU6p2n8td-35" vertex="1">
          <mxGeometry y="52" width="140" height="26" as="geometry" />
        </mxCell>
        <mxCell id="gVkinQhVHXGiU6p2n8td-38" value="+ field: type" style="text;strokeColor=none;fillColor=none;align=left;verticalAlign=top;spacingLeft=4;spacingRight=4;overflow=hidden;rotatable=0;points=[[0,0.5],[1,0.5]];portConstraint=eastwest;" parent="gVkinQhVHXGiU6p2n8td-35" vertex="1">
          <mxGeometry y="78" width="140" height="26" as="geometry" />
        </mxCell>
        <mxCell id="gVkinQhVHXGiU6p2n8td-46" style="edgeStyle=orthogonalEdgeStyle;rounded=0;orthogonalLoop=1;jettySize=auto;html=1;entryX=1.007;entryY=0.154;entryDx=0;entryDy=0;entryPerimeter=0;" parent="1" source="gVkinQhVHXGiU6p2n8td-40" target="gVkinQhVHXGiU6p2n8td-24" edge="1">
          <mxGeometry relative="1" as="geometry" />
        </mxCell>
        <mxCell id="gVkinQhVHXGiU6p2n8td-40" value="Seance" style="swimlane;fontStyle=1;childLayout=stackLayout;horizontal=1;startSize=26;fillColor=none;horizontalStack=0;resizeParent=1;resizeParentMax=0;resizeLast=0;collapsible=1;marginBottom=0;" parent="1" vertex="1">
          <mxGeometry x="1029" y="220" width="140" height="104" as="geometry" />
        </mxCell>
        <mxCell id="gVkinQhVHXGiU6p2n8td-41" value="+ field: type" style="text;strokeColor=none;fillColor=none;align=left;verticalAlign=top;spacingLeft=4;spacingRight=4;overflow=hidden;rotatable=0;points=[[0,0.5],[1,0.5]];portConstraint=eastwest;" parent="gVkinQhVHXGiU6p2n8td-40" vertex="1">
          <mxGeometry y="26" width="140" height="26" as="geometry" />
        </mxCell>
        <mxCell id="gVkinQhVHXGiU6p2n8td-42" value="+ field: type" style="text;strokeColor=none;fillColor=none;align=left;verticalAlign=top;spacingLeft=4;spacingRight=4;overflow=hidden;rotatable=0;points=[[0,0.5],[1,0.5]];portConstraint=eastwest;" parent="gVkinQhVHXGiU6p2n8td-40" vertex="1">
          <mxGeometry y="52" width="140" height="26" as="geometry" />
        </mxCell>
        <mxCell id="gVkinQhVHXGiU6p2n8td-43" value="+ field: type" style="text;strokeColor=none;fillColor=none;align=left;verticalAlign=top;spacingLeft=4;spacingRight=4;overflow=hidden;rotatable=0;points=[[0,0.5],[1,0.5]];portConstraint=eastwest;" parent="gVkinQhVHXGiU6p2n8td-40" vertex="1">
          <mxGeometry y="78" width="140" height="26" as="geometry" />
        </mxCell>
        <mxCell id="gVkinQhVHXGiU6p2n8td-48" style="edgeStyle=orthogonalEdgeStyle;rounded=0;orthogonalLoop=1;jettySize=auto;html=1;entryX=0.5;entryY=0;entryDx=0;entryDy=0;exitX=0.5;exitY=0;exitDx=0;exitDy=0;" parent="1" source="gVkinQhVHXGiU6p2n8td-1" target="gVkinQhVHXGiU6p2n8td-22" edge="1">
          <mxGeometry relative="1" as="geometry">
            <mxPoint x="940" y="30" as="targetPoint" />
            <Array as="points">
              <mxPoint x="320" y="40" />
              <mxPoint x="930" y="40" />
            </Array>
          </mxGeometry>
        </mxCell>
        <mxCell id="gVkinQhVHXGiU6p2n8td-59" value="0,n" style="text;html=1;align=center;verticalAlign=middle;resizable=0;points=[];autosize=1;" parent="1" vertex="1">
          <mxGeometry x="325" y="20" width="30" height="20" as="geometry" />
        </mxCell>
        <mxCell id="gVkinQhVHXGiU6p2n8td-60" value="1,1" style="text;html=1;align=center;verticalAlign=middle;resizable=0;points=[];autosize=1;" parent="1" vertex="1">
          <mxGeometry x="895" y="20" width="30" height="20" as="geometry" />
        </mxCell>
        <mxCell id="gVkinQhVHXGiU6p2n8td-62" value="2,n" style="text;html=1;align=center;verticalAlign=middle;resizable=0;points=[];autosize=1;" parent="1" vertex="1">
          <mxGeometry x="763" y="180" width="30" height="20" as="geometry" />
        </mxCell>
        <mxCell id="gVkinQhVHXGiU6p2n8td-63" value="1,1" style="text;html=1;align=center;verticalAlign=middle;resizable=0;points=[];autosize=1;" parent="1" vertex="1">
          <mxGeometry x="860" y="180" width="30" height="20" as="geometry" />
        </mxCell>
        <mxCell id="gVkinQhVHXGiU6p2n8td-64" value="0,n" style="text;html=1;align=center;verticalAlign=middle;resizable=0;points=[];autosize=1;" parent="1" vertex="1">
          <mxGeometry x="1110" y="190" width="30" height="20" as="geometry" />
        </mxCell>
        <mxCell id="gVkinQhVHXGiU6p2n8td-65" value="1,1" style="text;html=1;align=center;verticalAlign=middle;resizable=0;points=[];autosize=1;" parent="1" vertex="1">
          <mxGeometry x="1020" y="95" width="30" height="20" as="geometry" />
        </mxCell>
        <mxCell id="gVkinQhVHXGiU6p2n8td-66" value="3,n" style="text;html=1;align=center;verticalAlign=middle;resizable=0;points=[];autosize=1;" parent="1" vertex="1">
          <mxGeometry x="945" y="200" width="30" height="20" as="geometry" />
        </mxCell>
        <mxCell id="gVkinQhVHXGiU6p2n8td-67" value="1,1" style="text;html=1;align=center;verticalAlign=middle;resizable=0;points=[];autosize=1;" parent="1" vertex="1">
          <mxGeometry x="945" y="170" width="30" height="20" as="geometry" />
        </mxCell>
        <mxCell id="gVkinQhVHXGiU6p2n8td-49" value="InterfaceGraphique" style="swimlane;fontStyle=1;childLayout=stackLayout;horizontal=1;startSize=26;fillColor=none;horizontalStack=0;resizeParent=1;resizeParentMax=0;resizeLast=0;collapsible=1;marginBottom=0;" parent="1" vertex="1">
          <mxGeometry x="550" y="490" width="140" height="104" as="geometry" />
        </mxCell>
        <mxCell id="gVkinQhVHXGiU6p2n8td-50" value="+ field: type" style="text;strokeColor=none;fillColor=none;align=left;verticalAlign=top;spacingLeft=4;spacingRight=4;overflow=hidden;rotatable=0;points=[[0,0.5],[1,0.5]];portConstraint=eastwest;" parent="gVkinQhVHXGiU6p2n8td-49" vertex="1">
          <mxGeometry y="26" width="140" height="26" as="geometry" />
        </mxCell>
        <mxCell id="gVkinQhVHXGiU6p2n8td-51" value="+ field: type" style="text;strokeColor=none;fillColor=none;align=left;verticalAlign=top;spacingLeft=4;spacingRight=4;overflow=hidden;rotatable=0;points=[[0,0.5],[1,0.5]];portConstraint=eastwest;" parent="gVkinQhVHXGiU6p2n8td-49" vertex="1">
          <mxGeometry y="52" width="140" height="26" as="geometry" />
        </mxCell>
        <mxCell id="gVkinQhVHXGiU6p2n8td-52" value="+ field: type" style="text;strokeColor=none;fillColor=none;align=left;verticalAlign=top;spacingLeft=4;spacingRight=4;overflow=hidden;rotatable=0;points=[[0,0.5],[1,0.5]];portConstraint=eastwest;" parent="gVkinQhVHXGiU6p2n8td-49" vertex="1">
          <mxGeometry y="78" width="140" height="26" as="geometry" />
        </mxCell>
        <mxCell id="sxT-1K6BMq8s-l1KHEbg-20" value="Groupe" style="swimlane;fontStyle=1;childLayout=stackLayout;horizontal=1;startSize=26;fillColor=none;horizontalStack=0;resizeParent=1;resizeParentMax=0;resizeLast=0;collapsible=1;marginBottom=0;" vertex="1" parent="1">
          <mxGeometry x="332" y="376" width="140" height="104" as="geometry" />
        </mxCell>
        <mxCell id="sxT-1K6BMq8s-l1KHEbg-21" value="+ field: type" style="text;strokeColor=none;fillColor=none;align=left;verticalAlign=top;spacingLeft=4;spacingRight=4;overflow=hidden;rotatable=0;points=[[0,0.5],[1,0.5]];portConstraint=eastwest;" vertex="1" parent="sxT-1K6BMq8s-l1KHEbg-20">
          <mxGeometry y="26" width="140" height="26" as="geometry" />
        </mxCell>
        <mxCell id="sxT-1K6BMq8s-l1KHEbg-22" value="+ field: type" style="text;strokeColor=none;fillColor=none;align=left;verticalAlign=top;spacingLeft=4;spacingRight=4;overflow=hidden;rotatable=0;points=[[0,0.5],[1,0.5]];portConstraint=eastwest;" vertex="1" parent="sxT-1K6BMq8s-l1KHEbg-20">
          <mxGeometry y="52" width="140" height="26" as="geometry" />
        </mxCell>
        <mxCell id="sxT-1K6BMq8s-l1KHEbg-23" value="+ field: type" style="text;strokeColor=none;fillColor=none;align=left;verticalAlign=top;spacingLeft=4;spacingRight=4;overflow=hidden;rotatable=0;points=[[0,0.5],[1,0.5]];portConstraint=eastwest;" vertex="1" parent="sxT-1K6BMq8s-l1KHEbg-20">
          <mxGeometry y="78" width="140" height="26" as="geometry" />
        </mxCell>
        <mxCell id="sxT-1K6BMq8s-l1KHEbg-47" style="edgeStyle=orthogonalEdgeStyle;rounded=0;orthogonalLoop=1;jettySize=auto;html=1;entryX=0.7;entryY=-0.029;entryDx=0;entryDy=0;entryPerimeter=0;" edge="1" parent="1" source="sxT-1K6BMq8s-l1KHEbg-16" target="gVkinQhVHXGiU6p2n8td-22">
          <mxGeometry relative="1" as="geometry">
            <Array as="points">
              <mxPoint x="160" y="10" />
              <mxPoint x="960" y="10" />
              <mxPoint x="960" y="40" />
              <mxPoint x="958" y="40" />
            </Array>
          </mxGeometry>
        </mxCell>
        <mxCell id="sxT-1K6BMq8s-l1KHEbg-16" value="Promotion" style="swimlane;fontStyle=1;childLayout=stackLayout;horizontal=1;startSize=26;fillColor=none;horizontalStack=0;resizeParent=1;resizeParentMax=0;resizeLast=0;collapsible=1;marginBottom=0;" vertex="1" parent="1">
          <mxGeometry x="30" y="376" width="140" height="104" as="geometry" />
        </mxCell>
        <mxCell id="sxT-1K6BMq8s-l1KHEbg-17" value="+ field: type" style="text;strokeColor=none;fillColor=none;align=left;verticalAlign=top;spacingLeft=4;spacingRight=4;overflow=hidden;rotatable=0;points=[[0,0.5],[1,0.5]];portConstraint=eastwest;" vertex="1" parent="sxT-1K6BMq8s-l1KHEbg-16">
          <mxGeometry y="26" width="140" height="26" as="geometry" />
        </mxCell>
        <mxCell id="sxT-1K6BMq8s-l1KHEbg-18" value="+ field: type" style="text;strokeColor=none;fillColor=none;align=left;verticalAlign=top;spacingLeft=4;spacingRight=4;overflow=hidden;rotatable=0;points=[[0,0.5],[1,0.5]];portConstraint=eastwest;" vertex="1" parent="sxT-1K6BMq8s-l1KHEbg-16">
          <mxGeometry y="52" width="140" height="26" as="geometry" />
        </mxCell>
        <mxCell id="sxT-1K6BMq8s-l1KHEbg-19" value="+ field: type" style="text;strokeColor=none;fillColor=none;align=left;verticalAlign=top;spacingLeft=4;spacingRight=4;overflow=hidden;rotatable=0;points=[[0,0.5],[1,0.5]];portConstraint=eastwest;" vertex="1" parent="sxT-1K6BMq8s-l1KHEbg-16">
          <mxGeometry y="78" width="140" height="26" as="geometry" />
        </mxCell>
        <mxCell id="sxT-1K6BMq8s-l1KHEbg-27" style="edgeStyle=orthogonalEdgeStyle;rounded=0;orthogonalLoop=1;jettySize=auto;html=1;entryX=1;entryY=0.5;entryDx=0;entryDy=0;" edge="1" parent="1" source="sxT-1K6BMq8s-l1KHEbg-22" target="sxT-1K6BMq8s-l1KHEbg-18">
          <mxGeometry relative="1" as="geometry" />
        </mxCell>
        <mxCell id="sxT-1K6BMq8s-l1KHEbg-36" style="edgeStyle=orthogonalEdgeStyle;rounded=0;orthogonalLoop=1;jettySize=auto;html=1;entryX=1.03;entryY=-0.197;entryDx=0;entryDy=0;entryPerimeter=0;" edge="1" parent="1" source="sxT-1K6BMq8s-l1KHEbg-32" target="gVkinQhVHXGiU6p2n8td-42">
          <mxGeometry relative="1" as="geometry">
            <Array as="points">
              <mxPoint x="1180" y="262" />
              <mxPoint x="1180" y="267" />
            </Array>
          </mxGeometry>
        </mxCell>
        <mxCell id="sxT-1K6BMq8s-l1KHEbg-37" value="2,n" style="text;html=1;align=center;verticalAlign=middle;resizable=0;points=[];autosize=1;" vertex="1" parent="1">
          <mxGeometry x="350" y="324" width="140" height="20" as="geometry" />
        </mxCell>
        <mxCell id="sxT-1K6BMq8s-l1KHEbg-38" value="1,1" style="text;html=1;align=center;verticalAlign=middle;resizable=0;points=[];autosize=1;" vertex="1" parent="1">
          <mxGeometry x="410" y="356" width="30" height="20" as="geometry" />
        </mxCell>
        <mxCell id="sxT-1K6BMq8s-l1KHEbg-39" value="2,n" style="text;html=1;align=center;verticalAlign=middle;resizable=0;points=[];autosize=1;" vertex="1" parent="1">
          <mxGeometry x="275" y="418" width="30" height="20" as="geometry" />
        </mxCell>
        <mxCell id="sxT-1K6BMq8s-l1KHEbg-40" value="1,1" style="text;html=1;align=center;verticalAlign=middle;resizable=0;points=[];autosize=1;" vertex="1" parent="1">
          <mxGeometry x="175" y="418" width="30" height="20" as="geometry" />
        </mxCell>
        <mxCell id="sxT-1K6BMq8s-l1KHEbg-45" style="edgeStyle=orthogonalEdgeStyle;rounded=0;orthogonalLoop=1;jettySize=auto;html=1;entryX=0.342;entryY=1.133;entryDx=0;entryDy=0;entryPerimeter=0;" edge="1" parent="1" source="sxT-1K6BMq8s-l1KHEbg-41" target="sxT-1K6BMq8s-l1KHEbg-35">
          <mxGeometry relative="1" as="geometry">
            <Array as="points">
              <mxPoint x="1320" y="357" />
              <mxPoint x="1318" y="357" />
            </Array>
          </mxGeometry>
        </mxCell>
        <mxCell id="sxT-1K6BMq8s-l1KHEbg-48" value="2,n" style="text;html=1;align=center;verticalAlign=middle;resizable=0;points=[];autosize=1;" vertex="1" parent="1">
          <mxGeometry x="170" y="356" width="30" height="20" as="geometry" />
        </mxCell>
        <mxCell id="sxT-1K6BMq8s-l1KHEbg-49" value="1,1" style="text;html=1;align=center;verticalAlign=middle;resizable=0;points=[];autosize=1;" vertex="1" parent="1">
          <mxGeometry x="979" y="20" width="30" height="20" as="geometry" />
        </mxCell>
        <mxCell id="sxT-1K6BMq8s-l1KHEbg-50" value="&lt;div&gt;0,n&lt;/div&gt;" style="text;html=1;align=center;verticalAlign=middle;resizable=0;points=[];autosize=1;" vertex="1" parent="1">
          <mxGeometry x="570" y="336" width="30" height="20" as="geometry" />
        </mxCell>
        <mxCell id="sxT-1K6BMq8s-l1KHEbg-51" value="1,n" style="text;html=1;align=center;verticalAlign=middle;resizable=0;points=[];autosize=1;" vertex="1" parent="1">
          <mxGeometry x="999" y="324" width="30" height="20" as="geometry" />
        </mxCell>
        <mxCell id="sxT-1K6BMq8s-l1KHEbg-52" style="edgeStyle=orthogonalEdgeStyle;rounded=0;orthogonalLoop=1;jettySize=auto;html=1;exitX=1;exitY=0.25;exitDx=0;exitDy=0;" edge="1" parent="1" source="sxT-1K6BMq8s-l1KHEbg-20">
          <mxGeometry relative="1" as="geometry">
            <mxPoint x="1120" y="324" as="targetPoint" />
            <Array as="points">
              <mxPoint x="510" y="402" />
              <mxPoint x="510" y="360" />
              <mxPoint x="1120" y="360" />
              <mxPoint x="1120" y="324" />
            </Array>
          </mxGeometry>
        </mxCell>
        <mxCell id="sxT-1K6BMq8s-l1KHEbg-53" value="0,n" style="text;html=1;align=center;verticalAlign=middle;resizable=0;points=[];autosize=1;" vertex="1" parent="1">
          <mxGeometry x="475" y="410" width="30" height="20" as="geometry" />
        </mxCell>
        <mxCell id="sxT-1K6BMq8s-l1KHEbg-55" value="0,n" style="text;html=1;align=center;verticalAlign=middle;resizable=0;points=[];autosize=1;" vertex="1" parent="1">
          <mxGeometry x="1130" y="330" width="30" height="20" as="geometry" />
        </mxCell>
        <mxCell id="sxT-1K6BMq8s-l1KHEbg-32" value="Cours" style="swimlane;fontStyle=1;childLayout=stackLayout;horizontal=1;startSize=26;fillColor=none;horizontalStack=0;resizeParent=1;resizeParentMax=0;resizeLast=0;collapsible=1;marginBottom=0;" vertex="1" parent="1">
          <mxGeometry x="1270" y="210" width="140" height="104" as="geometry" />
        </mxCell>
        <mxCell id="sxT-1K6BMq8s-l1KHEbg-33" value="+ field: type" style="text;strokeColor=none;fillColor=none;align=left;verticalAlign=top;spacingLeft=4;spacingRight=4;overflow=hidden;rotatable=0;points=[[0,0.5],[1,0.5]];portConstraint=eastwest;" vertex="1" parent="sxT-1K6BMq8s-l1KHEbg-32">
          <mxGeometry y="26" width="140" height="26" as="geometry" />
        </mxCell>
        <mxCell id="sxT-1K6BMq8s-l1KHEbg-34" value="+ field: type" style="text;strokeColor=none;fillColor=none;align=left;verticalAlign=top;spacingLeft=4;spacingRight=4;overflow=hidden;rotatable=0;points=[[0,0.5],[1,0.5]];portConstraint=eastwest;" vertex="1" parent="sxT-1K6BMq8s-l1KHEbg-32">
          <mxGeometry y="52" width="140" height="26" as="geometry" />
        </mxCell>
        <mxCell id="sxT-1K6BMq8s-l1KHEbg-35" value="+ field: type" style="text;strokeColor=none;fillColor=none;align=left;verticalAlign=top;spacingLeft=4;spacingRight=4;overflow=hidden;rotatable=0;points=[[0,0.5],[1,0.5]];portConstraint=eastwest;" vertex="1" parent="sxT-1K6BMq8s-l1KHEbg-32">
          <mxGeometry y="78" width="140" height="26" as="geometry" />
        </mxCell>
        <mxCell id="sxT-1K6BMq8s-l1KHEbg-41" value="Type_cours" style="swimlane;fontStyle=1;childLayout=stackLayout;horizontal=1;startSize=26;fillColor=none;horizontalStack=0;resizeParent=1;resizeParentMax=0;resizeLast=0;collapsible=1;marginBottom=0;" vertex="1" parent="1">
          <mxGeometry x="1250" y="400" width="140" height="104" as="geometry" />
        </mxCell>
        <mxCell id="sxT-1K6BMq8s-l1KHEbg-42" value="+ field: type" style="text;strokeColor=none;fillColor=none;align=left;verticalAlign=top;spacingLeft=4;spacingRight=4;overflow=hidden;rotatable=0;points=[[0,0.5],[1,0.5]];portConstraint=eastwest;" vertex="1" parent="sxT-1K6BMq8s-l1KHEbg-41">
          <mxGeometry y="26" width="140" height="26" as="geometry" />
        </mxCell>
        <mxCell id="sxT-1K6BMq8s-l1KHEbg-43" value="+ field: type" style="text;strokeColor=none;fillColor=none;align=left;verticalAlign=top;spacingLeft=4;spacingRight=4;overflow=hidden;rotatable=0;points=[[0,0.5],[1,0.5]];portConstraint=eastwest;" vertex="1" parent="sxT-1K6BMq8s-l1KHEbg-41">
          <mxGeometry y="52" width="140" height="26" as="geometry" />
        </mxCell>
        <mxCell id="sxT-1K6BMq8s-l1KHEbg-44" value="+ field: type" style="text;strokeColor=none;fillColor=none;align=left;verticalAlign=top;spacingLeft=4;spacingRight=4;overflow=hidden;rotatable=0;points=[[0,0.5],[1,0.5]];portConstraint=eastwest;" vertex="1" parent="sxT-1K6BMq8s-l1KHEbg-41">
          <mxGeometry y="78" width="140" height="26" as="geometry" />
        </mxCell>
        <mxCell id="sxT-1K6BMq8s-l1KHEbg-64" value="1,n" style="text;html=1;align=center;verticalAlign=middle;resizable=0;points=[];autosize=1;" vertex="1" parent="1">
          <mxGeometry x="775" y="373" width="30" height="20" as="geometry" />
        </mxCell>
        <mxCell id="sxT-1K6BMq8s-l1KHEbg-65" value="1,1" style="text;html=1;align=center;verticalAlign=middle;resizable=0;points=[];autosize=1;" vertex="1" parent="1">
          <mxGeometry x="1090" y="380" width="30" height="20" as="geometry" />
        </mxCell>
      </root>
    </mxGraphModel>
  </diagram>
</mxfile>
